<svg width="122" height="121" viewBox="0 0 122 121" fill="none" xmlns="http://www.w3.org/2000/svg">
<g id="class-svgrepo-com 1">
<g id="Group">
<g id="Group_2">
<path id="Vector" d="M119.963 8.62354H43.123V59.6567H119.963V8.62354ZM116.646 56.3737H46.4294V11.9066H116.65L116.646 56.3737Z" fill="black"/>
<path id="Vector_2" d="M114.533 49.3467H101.209V54.0838H114.533V49.3467Z" fill="black"/>
<path id="Vector_3" d="M19.891 39.1713C23.3762 39.1713 26.2015 36.3692 26.2015 32.9126C26.2015 29.4559 23.3762 26.6538 19.891 26.6538C16.4059 26.6538 13.5806 29.4559 13.5806 32.9126C13.5806 36.3692 16.4059 39.1713 19.891 39.1713Z" fill="black"/>
<path id="Vector_4" d="M36.5781 72.5266V55.0284H39.8013V49.9052H27.7019L27.4411 41.0567L22.3285 40.1123L20.0008 42.8781L17.5938 40.1123L12.0277 41.0642V49.9052H0V55.0284H3.22325V72.5266H36.5781Z" fill="black"/>
<path id="Vector_5" d="M94.4756 86.9176C96.6251 86.9176 98.3677 85.1894 98.3677 83.0575C98.3677 80.9255 96.6251 79.1973 94.4756 79.1973C92.326 79.1973 90.5835 80.9255 90.5835 83.0575C90.5835 85.1894 92.326 86.9176 94.4756 86.9176Z" fill="black"/>
<path id="Vector_6" d="M112.338 86.9176C114.487 86.9176 116.23 85.1894 116.23 83.0575C116.23 80.9255 114.487 79.1973 112.338 79.1973C110.188 79.1973 108.446 80.9255 108.446 83.0575C108.446 85.1894 110.188 86.9176 112.338 86.9176Z" fill="black"/>
<path id="Vector_7" d="M74.7056 86.9176C76.8551 86.9176 78.5977 85.1894 78.5977 83.0575C78.5977 80.9255 76.8551 79.1973 74.7056 79.1973C72.556 79.1973 70.8135 80.9255 70.8135 83.0575C70.8135 85.1894 72.556 86.9176 74.7056 86.9176Z" fill="black"/>
<path id="Vector_8" d="M53.609 86.9101C55.7565 86.9101 57.4973 85.1836 57.4973 83.0537C57.4973 80.9238 55.7565 79.1973 53.609 79.1973C51.4616 79.1973 49.7207 80.9238 49.7207 83.0537C49.7207 85.1836 51.4616 86.9101 53.609 86.9101Z" fill="black"/>
<path id="Vector_9" d="M33.249 86.5505C35.3986 86.5505 37.1411 84.8222 37.1411 82.6903C37.1411 80.5583 35.3986 78.8301 33.249 78.8301C31.0995 78.8301 29.3569 80.5583 29.3569 82.6903C29.3569 84.8222 31.0995 86.5505 33.249 86.5505Z" fill="black"/>
<path id="Vector_10" d="M12.9913 86.5469C15.1388 86.5469 16.8796 84.8203 16.8796 82.6904C16.8796 80.5606 15.1388 78.834 12.9913 78.834C10.8439 78.834 9.10303 80.5606 9.10303 82.6904C9.10303 84.8203 10.8439 86.5469 12.9913 86.5469Z" fill="black"/>
<path id="Vector_11" d="M94.4756 100.684C97.5684 100.684 100.076 98.1969 100.076 95.1294C100.076 92.0619 97.5684 89.5752 94.4756 89.5752C91.3827 89.5752 88.8755 92.0619 88.8755 95.1294C88.8755 98.1969 91.3827 100.684 94.4756 100.684Z" fill="black"/>
<path id="Vector_12" d="M96.6334 101.512L94.5702 103.974L92.4353 101.512L87.4927 102.445V112.215H101.466L101.24 102.524L96.6334 101.512Z" fill="black"/>
<path id="Vector_13" d="M74.1764 100.676C77.2671 100.676 79.7727 98.191 79.7727 95.1256C79.7727 92.0602 77.2671 89.5752 74.1764 89.5752C71.0856 89.5752 68.5801 92.0602 68.5801 95.1256C68.5801 98.191 71.0856 100.676 74.1764 100.676Z" fill="black"/>
<path id="Vector_14" d="M76.3418 101.512L74.2786 103.974L72.1436 101.512L67.1973 102.524V112.215H81.1672L80.8876 102.524L76.3418 101.512Z" fill="black"/>
<path id="Vector_15" d="M84.0463 91.4415C86.3086 91.4415 88.1425 89.6227 88.1425 87.379C88.1425 85.1353 86.3086 83.3164 84.0463 83.3164C81.7841 83.3164 79.9502 85.1353 79.9502 87.379C79.9502 89.6227 81.7841 91.4415 84.0463 91.4415Z" fill="black"/>
<path id="Vector_16" d="M89.1475 99.6304C88.4182 98.2624 87.9157 96.7746 87.9157 95.1218C87.9157 94.035 88.2028 93.0193 88.5429 92.0449H88.1424H87.141H85.6257L84.118 93.8438L82.5612 92.0449H80.9515H80.0597C80.4716 92.9894 80.7096 94.0312 80.7096 95.1218C80.7096 96.9095 80.0748 98.5435 79.0356 99.8815H89.1551V99.6304H89.1475Z" fill="black"/>
<path id="Vector_17" d="M53.6089 100.684C56.7017 100.684 59.2089 98.1969 59.2089 95.1294C59.2089 92.0619 56.7017 89.5752 53.6089 89.5752C50.516 89.5752 48.0088 92.0619 48.0088 95.1294C48.0088 98.1969 50.516 100.684 53.6089 100.684Z" fill="black"/>
<path id="Vector_18" d="M55.77 101.512L53.7068 103.974L51.5718 101.512L46.6255 102.524V112.215H60.5954L60.312 102.524L55.77 101.512Z" fill="black"/>
<path id="Vector_19" d="M63.4711 91.4415C65.7334 91.4415 67.5673 89.6227 67.5673 87.379C67.5673 85.1353 65.7334 83.3164 63.4711 83.3164C61.2089 83.3164 59.375 85.1353 59.375 87.379C59.375 89.6227 61.2089 91.4415 63.4711 91.4415Z" fill="black"/>
<path id="Vector_20" d="M68.5688 99.6304C67.847 98.2624 67.3294 96.7746 67.3294 95.1218C67.3294 94.035 67.6317 93.0193 67.9642 92.0449H67.5636H66.5623H65.047L63.5393 93.8438L61.9787 92.0449H60.3727H59.4772C59.8928 92.9894 60.1271 94.0312 60.1271 95.1218C60.1271 96.9095 59.4961 98.5435 58.4531 99.8815H68.5688V99.6304Z" fill="black"/>
<path id="Vector_21" d="M115.017 100.425C118.11 100.425 120.617 97.9381 120.617 94.8706C120.617 91.8031 118.11 89.3164 115.017 89.3164C111.924 89.3164 109.417 91.8031 109.417 94.8706C109.417 97.9381 111.924 100.425 115.017 100.425Z" fill="black"/>
<path id="Vector_22" d="M121.717 102.295L117.175 101.257L115.112 103.715L112.977 101.257L108.03 102.37V111.964H122L121.717 102.295Z" fill="black"/>
<path id="Vector_23" d="M104.301 91.1863C106.565 91.1863 108.401 89.3658 108.401 87.12C108.401 84.8743 106.565 83.0537 104.301 83.0537C102.036 83.0537 100.201 84.8743 100.201 87.12C100.201 89.3658 102.036 91.1863 104.301 91.1863Z" fill="black"/>
<path id="Vector_24" d="M109.406 99.3757C108.684 98.0152 108.162 96.5236 108.162 94.8746C108.162 93.784 108.461 92.7721 108.793 91.7939H108.397H107.392H105.88L104.38 93.5891L102.815 91.7939H101.213H100.322C100.733 92.7459 100.968 93.7765 100.968 94.8671C100.968 96.6585 100.337 98.2888 99.3013 99.6305H109.424L109.406 99.3757Z" fill="black"/>
<path id="Vector_25" d="M33.5625 100.837C36.6553 100.837 39.1626 98.3502 39.1626 95.2827C39.1626 92.2152 36.6553 89.7285 33.5625 89.7285C30.4696 89.7285 27.9624 92.2152 27.9624 95.2827C27.9624 98.3502 30.4696 100.837 33.5625 100.837Z" fill="black"/>
<path id="Vector_26" d="M35.7318 101.666L33.6648 104.128L31.5299 101.666L26.5835 102.524V112.377H40.5497L40.2663 102.524L35.7318 101.666Z" fill="black"/>
<path id="Vector_27" d="M43.4291 91.5949C45.6914 91.5949 47.5253 89.776 47.5253 87.5323C47.5253 85.2886 45.6914 83.4697 43.4291 83.4697C41.1669 83.4697 39.333 85.2886 39.333 87.5323C39.333 89.776 41.1669 91.5949 43.4291 91.5949Z" fill="black"/>
<path id="Vector_28" d="M48.5303 99.7876C47.8086 98.4197 47.2947 96.9356 47.2947 95.2866C47.2947 94.1922 47.5894 93.1803 47.9257 92.2021H47.5252H46.5238H45.0086L43.5008 94.0011L41.9365 92.2021H40.3343H39.4387C39.8506 93.1541 40.0924 94.1885 40.0924 95.2828C40.0924 97.0705 39.4576 98.7045 38.4185 100.042H48.5341L48.5303 99.7876Z" fill="black"/>
<path id="Vector_29" d="M12.9913 100.837C16.0821 100.837 18.5876 98.3522 18.5876 95.2867C18.5876 92.2213 16.0821 89.7363 12.9913 89.7363C9.90057 89.7363 7.39502 92.2213 7.39502 95.2867C7.39502 98.3522 9.90057 100.837 12.9913 100.837Z" fill="black"/>
<path id="Vector_30" d="M15.1528 101.666L13.0896 104.128L10.9546 101.666L5.87598 102.524L6.01201 112.377H19.9782L19.6872 102.524L15.1528 101.666Z" fill="black"/>
<path id="Vector_31" d="M22.854 91.5949C25.1162 91.5949 26.9501 89.776 26.9501 87.5323C26.9501 85.2886 25.1162 83.4697 22.854 83.4697C20.5917 83.4697 18.7578 85.2886 18.7578 87.5323C18.7578 89.776 20.5917 91.5949 22.854 91.5949Z" fill="black"/>
<path id="Vector_32" d="M27.9589 99.7876C27.2296 98.4197 26.7195 96.9356 26.7195 95.2866C26.7195 94.1922 27.018 93.1803 27.3505 92.2021H26.95H25.9486H24.4334L22.9294 94.0011L21.365 92.2021H19.7591H18.8711C19.2792 93.1541 19.521 94.1885 19.521 95.2828C19.521 97.0705 18.8862 98.7045 17.8433 100.042H27.9627L27.9589 99.7876Z" fill="black"/>
</g>
</g>
</g>
</svg>
