<svg width="136" height="131" viewBox="0 0 136 131" fill="none" xmlns="http://www.w3.org/2000/svg">
<g id="book-svgrepo-com(1) 1">
<g id="Group">
<path id="Vector" d="M67.9998 37.8927C69.1986 37.8927 70.17 36.9567 70.17 35.8022V27.4405C70.17 26.2861 69.1986 25.3501 67.9998 25.3501C66.801 25.3501 65.8296 26.2861 65.8296 27.4405V35.8022C65.8296 36.9567 66.801 37.8927 67.9998 37.8927Z" fill="black"/>
<path id="Vector_2" d="M67.9998 100.005C69.1986 100.005 70.17 99.0694 70.17 97.9149V44.1637C70.17 43.0092 69.1986 42.0732 67.9998 42.0732C66.801 42.0732 65.8296 43.0092 65.8296 44.1637V97.9149C65.8296 99.0694 66.801 100.005 67.9998 100.005Z" fill="black"/>
<path id="Vector_3" d="M133.83 21.0513C132.631 21.0513 131.66 21.9872 131.66 23.1417V110.671H76.3139C75.2031 110.671 74.1686 111.179 73.5144 112.038L71.6541 114.129L64.3465 114.13L62.4853 112.039C61.8299 111.179 60.7952 110.671 59.6855 110.671H4.34043V23.1417C4.34043 21.9872 3.36904 21.0513 2.17021 21.0513C0.971387 21.0513 0 21.9872 0 23.1417V112.761C0 113.916 0.971387 114.851 2.17021 114.851H59.272L61.7015 117.581C62.1138 118.044 62.7157 118.311 63.3491 118.311L72.6526 118.31C73.2861 118.31 73.8882 118.043 74.3003 117.58L76.7277 114.851H133.83C135.029 114.851 136 113.915 136 112.761V23.1417C136 21.9872 135.029 21.0513 133.83 21.0513Z" fill="black"/>
<path id="Vector_4" d="M10.8509 106.49H59.6859C62.3066 106.49 64.739 107.746 66.193 109.852C66.5955 110.434 67.2735 110.784 68.0001 110.784C68.7264 110.784 69.4047 110.434 69.8069 109.852C71.2601 107.746 73.6927 106.49 76.3138 106.49H125.149C126.348 106.49 127.319 105.554 127.319 104.399V14.7799C127.319 13.6254 126.348 12.6895 125.149 12.6895H76.3138C73.184 12.6895 70.227 13.8417 67.9998 15.8594C65.7723 13.842 62.8156 12.6895 59.6859 12.6895H10.8509C9.65205 12.6895 8.68066 13.6254 8.68066 14.7799V104.399C8.68066 105.554 9.65205 106.49 10.8509 106.49ZM13.0211 16.8703H59.6859C62.3063 16.8703 64.7387 18.1285 66.1925 20.2359C66.5947 20.819 67.2729 21.1693 67.9998 21.1693C68.7267 21.1693 69.405 20.819 69.8075 20.2359C71.2609 18.1285 73.6933 16.8706 76.3138 16.8706H122.979V102.309H76.3138C73.1837 102.309 70.227 103.46 67.9995 105.476C65.772 103.46 62.8153 102.309 59.6859 102.309H13.0211V16.8703Z" fill="black"/>
<path id="Vector_5" d="M56.4256 23.8384H22.4256C21.2268 23.8384 20.2554 24.7743 20.2554 25.9288C20.2554 27.0833 21.2268 28.0192 22.4256 28.0192H56.4256C57.6244 28.0192 58.5958 27.0833 58.5958 25.9288C58.5958 24.7743 57.6244 23.8384 56.4256 23.8384Z" fill="black"/>
<path id="Vector_6" d="M56.4256 32.2002H22.4256C21.2268 32.2002 20.2554 33.1361 20.2554 34.2906C20.2554 35.4451 21.2268 36.381 22.4256 36.381H56.4256C57.6244 36.381 58.5958 35.4451 58.5958 34.2906C58.5958 33.1361 57.6244 32.2002 56.4256 32.2002Z" fill="black"/>
<path id="Vector_7" d="M56.4256 40.562H22.4256C21.2268 40.562 20.2554 41.498 20.2554 42.6524C20.2554 43.8069 21.2268 44.7429 22.4256 44.7429H56.4256C57.6244 44.7429 58.5958 43.8069 58.5958 42.6524C58.5958 41.498 57.6244 40.562 56.4256 40.562Z" fill="black"/>
<path id="Vector_8" d="M56.4256 48.9233H22.4256C21.2268 48.9233 20.2554 49.8593 20.2554 51.0138C20.2554 52.1682 21.2268 53.1042 22.4256 53.1042H56.4256C57.6244 53.1042 58.5958 52.1682 58.5958 51.0138C58.5958 49.8593 57.6244 48.9233 56.4256 48.9233Z" fill="black"/>
<path id="Vector_9" d="M56.4256 57.2852H22.4256C21.2268 57.2852 20.2554 58.2211 20.2554 59.3756C20.2554 60.5301 21.2268 61.466 22.4256 61.466H56.4256C57.6244 61.466 58.5958 60.5301 58.5958 59.3756C58.5958 58.2211 57.6244 57.2852 56.4256 57.2852Z" fill="black"/>
<path id="Vector_10" d="M22.4256 69.8278H39.4256C40.6244 69.8278 41.5958 68.8919 41.5958 67.7374C41.5958 66.5829 40.6244 65.647 39.4256 65.647H22.4256C21.2268 65.647 20.2554 66.5829 20.2554 67.7374C20.2554 68.8919 21.2268 69.8278 22.4256 69.8278Z" fill="black"/>
<path id="Vector_11" d="M56.4256 74.0088H22.4256C21.2268 74.0088 20.2554 74.9447 20.2554 76.0992V93.2505C20.2554 94.4049 21.2268 95.3409 22.4256 95.3409H56.4256C57.6244 95.3409 58.5958 94.4049 58.5958 93.2505V76.0992C58.5958 74.9447 57.6244 74.0088 56.4256 74.0088ZM54.2554 91.16H24.5958V78.1896H54.2554V91.16Z" fill="black"/>
<path id="Vector_12" d="M76.681 61.8937H110.681C111.88 61.8937 112.851 60.9578 112.851 59.8033C112.851 58.6488 111.88 57.7129 110.681 57.7129H76.681C75.4821 57.7129 74.5107 58.6488 74.5107 59.8033C74.5107 60.9578 75.4821 61.8937 76.681 61.8937Z" fill="black"/>
<path id="Vector_13" d="M76.681 70.2556H110.681C111.88 70.2556 112.851 69.3196 112.851 68.1651C112.851 67.0107 111.88 66.0747 110.681 66.0747H76.681C75.4821 66.0747 74.5107 67.0107 74.5107 68.1651C74.5107 69.3196 75.4821 70.2556 76.681 70.2556Z" fill="black"/>
<path id="Vector_14" d="M76.681 78.6174H110.681C111.88 78.6174 112.851 77.6814 112.851 76.5269C112.851 75.3725 111.88 74.4365 110.681 74.4365H76.681C75.4821 74.4365 74.5107 75.3725 74.5107 76.5269C74.5107 77.6814 75.4821 78.6174 76.681 78.6174Z" fill="black"/>
<path id="Vector_15" d="M76.681 86.9792H110.681C111.88 86.9792 112.851 86.0432 112.851 84.8888C112.851 83.7343 111.88 82.7983 110.681 82.7983H76.681C75.4821 82.7983 74.5107 83.7343 74.5107 84.8888C74.5107 86.0432 75.4821 86.9792 76.681 86.9792Z" fill="black"/>
<path id="Vector_16" d="M76.681 95.3405H93.681C94.8798 95.3405 95.8512 94.4046 95.8512 93.2501C95.8512 92.0956 94.8798 91.1597 93.681 91.1597H76.681C75.4821 91.1597 74.5107 92.0956 74.5107 93.2501C74.5107 94.4046 75.4821 95.3405 76.681 95.3405Z" fill="black"/>
<path id="Vector_17" d="M76.681 49.3511C75.4821 49.3511 74.5107 50.2871 74.5107 51.4415C74.5107 52.596 75.4821 53.532 76.681 53.532C79.7925 53.532 82.4034 52.7772 84.6592 51.543C84.7735 51.4909 84.8823 51.4304 84.9848 51.3607C88.6128 49.27 91.3073 45.9306 93.681 42.5146C96.0537 45.9292 98.7471 49.2675 102.373 51.3582C102.479 51.4304 102.591 51.4934 102.71 51.5466C104.964 52.7783 107.573 53.5317 110.681 53.5317C111.88 53.5317 112.851 52.5957 112.851 51.4413C112.851 50.2868 111.88 49.3508 110.681 49.3508C108.844 49.3508 107.239 49.0055 105.798 48.389V28.9806C107.239 28.3641 108.844 28.0187 110.681 28.0187C111.88 28.0187 112.851 27.0828 112.851 25.9283C112.851 24.7738 111.88 23.8379 110.681 23.8379C107.572 23.8379 104.962 24.5918 102.707 25.8244C102.59 25.8773 102.479 25.9392 102.375 26.0103C98.748 28.101 96.0543 31.4395 93.6812 34.8547C91.307 31.4381 88.6122 28.0985 84.9833 26.0078C84.8823 25.9392 84.775 25.8795 84.6624 25.8283C82.406 24.5932 79.7942 23.8379 76.6812 23.8379C75.4824 23.8379 74.511 24.7738 74.511 25.9283C74.511 27.0828 75.4824 28.0187 76.6812 28.0187C78.5181 28.0187 80.1232 28.3641 81.5642 28.9806V48.389C80.1229 49.0058 78.5178 49.3511 76.681 49.3511ZM101.458 31.9958V45.3743C99.5891 43.5372 97.9514 41.2054 96.2615 38.6852C97.9514 36.1647 99.5891 33.8326 101.458 31.9958ZM85.9044 31.9958C87.7728 33.8329 89.4106 36.1647 91.1004 38.6849C89.4103 41.2051 87.7728 43.5372 85.9044 45.374V31.9958Z" fill="black"/>
</g>
</g>
</svg>
