<svg width="137" height="137" viewBox="0 0 137 137" fill="none" xmlns="http://www.w3.org/2000/svg">
<g id="teacher-svgrepo-com 1">
<g id="Group">
<g id="Group_2">
<path id="Vector" d="M68.704 24.0232C75.3378 24.0232 80.7156 18.6454 80.7156 12.0116C80.7156 5.37777 75.3378 0 68.704 0C62.0702 0 56.6924 5.37777 56.6924 12.0116C56.6924 18.6454 62.0702 24.0232 68.704 24.0232Z" fill="black"/>
</g>
</g>
<g id="Group_3">
<g id="Group_4">
<path id="Vector_2" d="M72.2432 36.4172L70.0996 32.5188L72.0016 29.0598C72.2849 28.5442 71.9114 27.9111 71.3222 27.9111H66.0966C65.5082 27.9111 65.1336 28.5437 65.4175 29.0598L67.3235 32.5261L65.1762 36.4319C64.9271 36.8852 64.8457 37.412 64.9463 37.9194L65.3137 39.7694L68.7098 40.703L72.0759 39.7777L72.4677 37.9333C72.5769 37.4174 72.4974 36.8795 72.2432 36.4172Z" fill="black"/>
</g>
</g>
<g id="Group_5">
<g id="Group_6">
<path id="Vector_3" d="M63.5435 110.924V124.705C63.5435 128.546 66.6573 131.66 70.4983 131.66C74.3394 131.66 77.4532 128.546 77.4532 124.705V94.6143L63.5435 110.924Z" fill="black"/>
</g>
</g>
<g id="Group_7">
<g id="Group_8">
<path id="Vector_4" d="M44.1542 114.098C41.8169 112.105 40.3822 109.446 39.8904 106.64V119.302C39.8904 121.317 41.5239 122.951 43.5393 122.951C45.5547 122.951 47.1883 121.317 47.1883 119.302V116.019C46.1167 115.537 45.0937 114.899 44.1542 114.098Z" fill="black"/>
</g>
</g>
<g id="Group_9">
<g id="Group_10">
<path id="Vector_5" d="M47.1883 80.6899H39.8904V102.248C40.2674 100.087 41.2071 97.9956 42.7339 96.2055L47.1886 90.9826V80.6899H47.1883Z" fill="black"/>
</g>
</g>
<g id="Group_11">
<g id="Group_12">
<path id="Vector_6" d="M89.7065 80.6899V119.302C89.7065 121.317 91.3401 122.951 93.3555 122.951C95.3709 122.951 97.0045 121.317 97.0045 119.302V80.6899H89.7065Z" fill="black"/>
</g>
</g>
<g id="Group_13">
<g id="Group_14">
<path id="Vector_7" d="M63.507 80.6899L47.0988 99.9283C44.6063 102.851 44.955 107.24 47.8772 109.733C50.8024 112.227 55.1915 111.875 57.6818 108.954L81.7882 80.6899H63.507Z" fill="black"/>
</g>
</g>
<g id="Group_15">
<g id="Group_16">
<path id="Vector_8" d="M58.4343 51.4311C57.0035 51.4346 46.7336 51.4602 45.3187 51.4637C47.9586 45.8799 47.3598 47.1461 49.9636 41.6383C50.5742 40.3464 51.8703 39.5 53.2917 39.4484V46.1336L57.1681 46.1237V39.443C57.1681 39.1257 57.1256 38.5889 57.6629 38.1793C57.9746 37.9417 58.3797 37.863 58.7581 37.9668C59.5552 38.186 63.7949 39.3515 64.2563 39.4784C64.2324 39.4168 59.7866 27.8869 59.773 27.8516H53.4284C47.4936 27.8516 42.0202 31.3183 39.4836 36.684C38.6391 38.4704 31.7311 53.0831 30.9174 54.8047C29.0414 58.7748 32.1544 63.2112 36.1721 63.0774C38.668 63.0713 56.1593 63.0277 58.4635 63.022C61.6645 63.014 64.2528 60.4126 64.2447 57.2118C64.2362 53.8195 61.3477 51.3401 58.4343 51.4311Z" fill="black"/>
</g>
</g>
<g id="Group_17">
<g id="Group_18">
<path id="Vector_9" d="M125.908 68.3682C125.487 68.3682 14.4525 68.3682 11.093 68.3682C9.152 68.3682 7.57837 69.9418 7.57837 71.8828C7.57837 73.8241 9.152 75.3974 11.093 75.3974H14.8763V131.606C14.8763 134.585 17.2915 137 20.2704 137C23.2493 137 25.6645 134.585 25.6645 131.606V75.3974C29.5115 75.3974 107.678 75.3974 111.653 75.3974V131.606C111.653 134.585 114.069 137 117.048 137C120.026 137 122.442 134.585 122.442 131.606V75.3974H125.908C127.849 75.3974 129.422 73.8238 129.422 71.8828C129.422 69.9418 127.849 68.3682 125.908 68.3682Z" fill="black"/>
</g>
</g>
<g id="Group_19">
<g id="Group_20">
<path id="Vector_10" d="M106.415 54.8057C105.603 53.0881 98.6919 38.4684 97.8487 36.685C95.3121 31.3195 89.8388 27.8525 83.9039 27.8525H77.6458C77.6225 27.9135 73.1871 39.417 73.1633 39.4788C73.6425 39.3472 77.8687 38.1853 78.6615 37.9673C79.0396 37.8634 79.4444 37.9418 79.7567 38.1797C80.294 38.5891 80.2514 39.1261 80.2514 39.4435V46.1768H83.99V39.4467C85.4318 39.4793 86.7517 40.3308 87.3696 41.6384C89.9752 47.1508 89.409 45.9526 92.0252 51.4866C87.1724 51.4866 83.7578 51.4866 78.8841 51.4866C75.6831 51.4866 73.0884 54.0814 73.0884 57.2824C73.0884 60.4834 75.6831 63.0781 78.8841 63.0781C81.2313 63.0781 98.7959 63.0781 101.176 63.0781C105.41 63.0781 108.236 58.6564 106.415 54.8057Z" fill="black"/>
</g>
</g>
</g>
</svg>
