<svg width="50" height="50" viewBox="0 0 50 50" fill="none" xmlns="http://www.w3.org/2000/svg">
<path d="M30.0375 37.5641L31.5869 21.2521C31.6805 20.2679 32.5521 19.5467 33.5383 19.6393C34.5225 19.7328 35.2445 20.6064 35.1511 21.5906L33.6017 37.9026C33.5137 38.8292 32.734 39.5236 31.8218 39.5236C31.7651 39.5236 31.708 39.5208 31.6504 39.5154C30.6662 39.4219 29.9441 38.5483 30.0375 37.5641ZM7.37293 6.02486H42.628C43.6166 6.02486 44.4181 5.2234 44.4181 4.2348C44.4181 3.2462 43.6166 2.44474 42.628 2.44474H32.5389C32.6187 2.24197 32.6624 2.02098 32.6624 1.79006C32.6624 0.801459 31.861 0 30.8724 0H19.1288C18.1402 0 17.3387 0.801459 17.3387 1.79006C17.3387 2.02114 17.3825 2.24197 17.4622 2.44474H7.37293C6.38433 2.44474 5.58287 3.2462 5.58287 4.2348C5.58287 5.2234 6.38417 6.02486 7.37293 6.02486ZM24.9998 42.4153C25.9884 42.4153 26.7899 41.6139 26.7899 40.6253V18.5294C26.7899 17.5408 25.9884 16.7394 24.9998 16.7394C24.0112 16.7394 23.2098 17.5408 23.2098 18.5294V40.6251C23.2098 41.6139 24.0112 42.4153 24.9998 42.4153ZM44.4716 11.1435L40.3089 48.4086C40.2077 49.3147 39.4417 50 38.5299 50H11.4702C10.5584 50 9.79245 49.3147 9.69123 48.4086L5.52868 11.1435C5.47205 10.6374 5.63381 10.1309 5.97343 9.75128C6.31289 9.37162 6.79816 9.1547 7.30751 9.1547H42.6926C43.202 9.1547 43.6873 9.37162 44.0267 9.75128C44.3665 10.1309 44.5283 10.6372 44.4716 11.1435ZM40.6917 12.7348H9.30864L13.0715 46.4199H36.9288L40.6917 12.7348ZM16.3991 37.9026C16.487 38.8292 17.2664 39.5236 18.179 39.5236C18.2357 39.5236 18.2928 39.5208 18.3504 39.5154C19.3346 39.4219 20.0567 38.5483 19.9633 37.5641L18.414 21.2521C18.3205 20.2679 17.4477 19.546 16.4627 19.6393C15.4785 19.7328 14.7564 20.6064 14.8499 21.5906L16.3991 37.9026Z" fill="#FF0000"/>
</svg>
