<svg width="50" height="50" viewBox="0 0 50 50" fill="none" xmlns="http://www.w3.org/2000/svg">
<g clip-path="url(#clip0_795_64)">
<path d="M6.91486 34.3378L17.271 43.6232L39.2376 19.142L28.8798 9.85178L6.91486 34.3378ZM26.2844 21.217L13.9513 34.9657C13.7963 35.1365 13.5812 35.2424 13.3503 35.2551C13.1194 35.2693 12.8916 35.1887 12.7208 35.0321L12.1088 34.4817C11.7513 34.1606 11.7213 33.6102 12.0423 33.2528L24.3755 19.5041C24.5305 19.3318 24.7456 19.2274 24.9765 19.2147C25.2074 19.2021 25.4351 19.2827 25.6059 19.4361L26.218 19.9849C26.5755 20.3076 26.6039 20.858 26.2844 21.217ZM29.8715 14.6803L30.482 15.2276C30.8426 15.5486 30.871 16.1006 30.55 16.458L29.4776 17.6537C29.3195 17.8261 29.106 17.9289 28.8751 17.9431C28.6442 17.9558 28.418 17.8767 28.2456 17.7217L27.6335 17.1729C27.4627 17.0179 27.3583 16.8028 27.3425 16.5703C27.3299 16.3394 27.4105 16.1117 27.5671 15.9409L28.6394 14.7452C28.9621 14.3877 29.514 14.3577 29.8715 14.6803ZM32.4241 5.90258L42.7787 15.1912L40.2355 18.027L29.8825 8.73835L32.4241 5.90258ZM46.943 6.03701L41.0738 0.77036C39.8354 -0.341489 37.9328 -0.237105 36.8225 1.00127L33.362 4.86032L43.7182 14.1473L47.1787 10.2915C47.7101 9.69678 47.99 8.9139 47.941 8.11679C47.8967 7.31809 47.5377 6.57 46.943 6.03701ZM43.5047 10.2772L37.2274 4.64839L39.0399 2.6303L45.3156 8.25755L43.5047 10.2772ZM2.11319 48.0848C1.95345 48.6384 2.12426 49.2346 2.55129 49.6158C2.97831 50.0001 3.5888 50.1061 4.12021 49.8894L16.0279 45.0118L5.6749 35.7232L2.11319 48.0848ZM12.6386 44.4235L7.96028 46.3388L5.22415 43.8842L6.62385 39.0271L12.6386 44.4235Z" fill="#1B4A8F"/>
</g>
<defs>
<clipPath id="clip0_795_64">
<rect width="50" height="50" fill="white"/>
</clipPath>
</defs>
</svg>
