<svg width="406" height="531" viewBox="0 0 406 531" fill="none" xmlns="http://www.w3.org/2000/svg">
<g clip-path="url(#clip0_410_76)">
<path d="M13.4726 441.654C22.2272 415.882 35.1404 389.147 52.7823 360.268C63.233 343.161 66.498 336.784 69.5657 327.486C72.8208 317.619 77.6948 308.998 81.4893 306.395C83.5874 304.956 86.0487 304.461 93.3074 304.017C98.7275 303.685 103.401 303.808 104.738 304.316C105.983 304.789 108.049 304.922 109.33 304.611C114.698 303.311 126.955 297.823 134.368 293.401C138.742 290.792 144.443 287.719 147.037 286.572C151.617 284.548 151.784 284.35 152.815 279.745L153.877 275.003L149.08 270.092C137.717 258.458 131.326 244.601 129.009 226.568C128.678 223.992 127.58 221.076 126.31 219.402C125.133 217.849 123.581 215.169 122.86 213.445C121.149 209.352 118.206 197.638 118.192 194.865C118.186 193.671 117.314 191.057 116.254 189.057C114.7 186.125 114.494 184.947 115.191 182.977C115.907 180.952 116.571 180.525 119.071 180.48C121.975 180.428 122.076 180.315 121.802 177.44C121.645 175.798 121.479 168.396 121.434 160.991C121.365 149.676 121.733 145.538 123.742 135.045C125.056 128.18 125.801 122.232 125.397 121.828C124.07 120.502 84.1082 108.878 80.876 108.878C79.6755 108.878 79.074 109.437 79.074 110.553C79.4953 112.734 80.3642 117.512 81.6385 124.077L82.9296 136.672C83.6396 143.598 85.1883 153.609 86.371 158.918C89.3789 172.419 92.1211 187.209 92.0807 189.714C92.062 190.875 92.7881 195.343 93.6941 199.643C94.6002 203.942 96.1823 212.15 97.2099 217.882C102.322 246.4 102.164 245.242 100.936 245.242C100.166 245.242 98.9429 240.112 97.3164 230.057C96.1647 222.938 94.5616 217.448 93.6345 217.448C93.2729 217.448 92.9851 218.328 92.9949 219.402C93.0296 223.232 96.4379 246.635 97.7068 251.756C99.0731 257.272 99.3792 262.636 98.5121 265.871C97.7939 268.549 97.0463 268.324 95.6322 265.002L94.4305 262.179L93.921 265.654C93.4995 268.528 93.0446 269.169 91.2855 269.365C90.1161 269.495 88.5213 270.179 87.7413 270.885C85.4194 272.985 77.456 272.583 74.9601 270.239C73.8307 269.179 72.0459 268.299 70.9939 268.285C69.1842 268.261 69.0941 267.932 69.3213 262.179C69.4534 258.835 69.938 253.363 70.3982 250.019C71.3635 243.005 70.8764 208.488 69.534 188.786C69.0295 181.381 68.3782 159.597 68.0866 140.378C67.7192 116.162 67.2569 105.194 66.5809 104.654C64.8714 103.29 56.2608 101.256 49.6367 100.651C41.9243 99.946 39.1025 98.9822 39.1025 97.0526C39.1025 94.3295 48.8211 84.5432 59.4901 76.5232C65.3587 72.1116 70.7773 67.4276 71.5313 66.1143C72.2854 64.8011 74.3887 63.0505 76.2054 62.2242C78.0221 61.3979 84.9828 56.1728 91.6737 50.6128C98.3646 45.0528 107.163 38.1219 111.225 35.2109C115.287 32.2998 123.981 26.0527 130.544 21.3286C137.107 16.6045 145.709 10.6996 149.661 8.20663C153.612 5.71367 157.91 2.84732 159.213 1.83699L161.581 0L173.55 3.73538C225.119 19.8288 261.84 31.7856 291.966 42.2932C323.477 53.2841 333.279 57.0002 344.913 62.3656C351.397 65.3558 358.747 68.4743 361.247 69.2957C363.747 70.1171 366.667 71.4971 367.736 72.3625C369.443 73.7444 369.531 74.1155 368.455 75.4116C366.372 77.9203 355.204 83.0875 350.402 83.7647C345.163 84.5034 334.859 90.5034 295.551 115.706L271.764 130.956L272.306 136.783C272.604 139.988 273.658 146.02 274.648 150.189C276.457 157.799 276.604 167.472 275.002 173.503C274.374 175.872 274.46 175.986 276.415 175.367C281.717 173.688 283.67 173.837 285.779 176.081C288.56 179.04 289.374 188.463 287.281 193.47C286.505 195.328 285.638 199.04 285.354 201.719C284.177 212.858 273.81 227.829 266.299 229.237C264.678 229.541 263.011 230.237 262.594 230.785C262.176 231.332 260.579 235.801 259.045 240.716L256.255 249.652L261.005 259.39C263.618 264.746 266.426 271.572 267.246 274.56C268.892 280.563 268.749 280.411 283.711 292.057C292.453 298.862 294.847 301.265 302.827 311.246C305.217 314.235 309.714 318.744 312.82 321.265C315.927 323.786 321.792 328.84 325.854 332.496C332.087 338.106 333.579 339.058 335.413 338.591C343.402 336.559 343.802 336.681 350.157 343.075C353.415 346.354 358.276 350.931 360.959 353.247C370.434 361.428 377.036 376.637 393.471 428.154C397.294 440.141 400.859 452.843 401.393 456.383C405.454 480.456 405.448 504.448 405.448 529.046L406 531H203H0C0 493.149 6.04206 463.464 13.4726 441.654ZM93.9868 254.146C93.6297 248.071 92.1029 245.797 92.12 251.366C92.1329 255.595 92.8668 259.139 93.7302 259.14C94.0329 259.141 94.1484 256.894 93.9868 254.146ZM103.042 265.147C101.816 261.552 100.218 249.822 100.757 248.368C101.622 246.029 102.045 247.108 103.878 256.323C105.09 262.421 105.233 264.607 104.469 265.371C103.705 266.135 103.36 266.081 103.042 265.147Z" fill="black"/>
</g>
<defs>
<clipPath id="clip0_410_76">
<rect width="406" height="531" fill="white"/>
</clipPath>
</defs>
</svg>
