<svg width="512" height="371" viewBox="0 0 512 371" fill="none" xmlns="http://www.w3.org/2000/svg">
<g clip-path="url(#clip0_410_101)">
<path d="M140.462 -0.000479134V182.781L129.421 196.01C129.421 196.338 126.279 185.164 126.279 185.164C122.438 171.87 109.87 158.793 91.0167 158.793H55.4053C38.6471 158.793 25.4458 173.51 22.7183 182.737L5.62771 245.166H28.4525L42.2648 194.895H47.8727L34.3655 245.166H115.098L100.631 194.895H106.523L114.247 219.539C117.898 229.949 127.099 232.348 134.169 223.475L162.148 189.622C163.098 188.385 163.747 187.149 164.156 185.927H512.002L511.995 -0.00341797L140.462 -0.000479134ZM146.855 6.18773H505.608V179.74H164.179C163.269 177.069 161.213 174.88 158.659 173.639L221.502 107.515L224.012 109.921L162.826 174.295H499.472V11.6307H152.981V172.567C150.878 172.763 148.754 173.624 146.849 175.322L146.855 6.18773ZM73.7753 100.846C59.431 100.846 47.7868 112.494 47.7868 126.868C47.7868 141.241 59.431 152.889 73.7753 152.889C88.1176 152.889 99.7423 141.241 99.7423 126.868C99.7423 112.494 88.1176 100.846 73.7753 100.846ZM-0.00292969 251.14V263.035H140.019V251.14H-0.00292969ZM-0.00292969 265.331V272.066H117.654V363.645H-0.00292969V371.014H124.658V265.335L-0.00292969 265.331ZM-0.00292969 273.006V362.487H115.846V273.006H-0.00292969Z" fill="black"/>
</g>
<defs>
<clipPath id="clip0_410_101">
<rect width="512" height="371" fill="white"/>
</clipPath>
</defs>
</svg>
